<svg xmlns="http://www.w3.org/2000/svg" xmlns:xlink="http://www.w3.org/1999/xlink" version="1.1" width="1000" height="1000" viewBox="0 0 1000 1000" xml:space="preserve">
<desc>Created with Fabric.js 3.5.0</desc>
<defs>
</defs>
<rect x="0" y="0" width="100%" height="100%" fill="rgba(255,255,255,0)"/>
<g transform="matrix(0.9981 0 0 0.9981 500.0651 500.0713)" id="987261">
<g style="">
		<g transform="matrix(2.0535 0 0 2.0535 258.6116 -0.0021)" id="Layer_1">
<path style="stroke: none; stroke-width: 1; stroke-dasharray: none; stroke-linecap: butt; stroke-dashoffset: 0; stroke-linejoin: miter; stroke-miterlimit: 4; is-custom-font: none; font-file-url: none; fill: rgb(99,132,117); fill-rule: nonzero; opacity: 1;" transform=" translate(-369.422, -242.484)" d="M 444.986 477.569 H 293.859 c -18.547 0 -33.584 -15.037 -33.584 -33.584 V 40.983 c 0 -18.547 15.037 -33.584 33.584 -33.584 h 151.126 c 18.547 0 33.584 15.037 33.584 33.584 v 403.003 C 478.569 462.532 463.532 477.569 444.986 477.569" stroke-linecap="round"/>
</g>
		<g transform="matrix(2.0535 0 0 2.0535 -258.6158 -0.0021)" id="Layer_1">
<path style="stroke: none; stroke-width: 1; stroke-dasharray: none; stroke-linecap: butt; stroke-dashoffset: 0; stroke-linejoin: miter; stroke-miterlimit: 4; is-custom-font: none; font-file-url: none; fill: rgb(99,132,117); fill-rule: nonzero; opacity: 1;" transform=" translate(-117.546, -242.484)" d="M 193.109 477.569 H 41.983 c -18.547 0 -33.584 -15.037 -33.584 -33.584 V 40.983 c 0 -18.547 15.037 -33.584 33.584 -33.584 h 151.126 c 18.547 0 33.584 15.037 33.584 33.584 v 403.003 C 226.692 462.532 211.655 477.569 193.109 477.569" stroke-linecap="round"/>
</g>
		<g transform="matrix(2.0535 0 0 2.0535 -0.002 -0.0021)" id="Layer_1">
<path style="stroke: none; stroke-width: 1; stroke-dasharray: none; stroke-linecap: butt; stroke-dashoffset: 0; stroke-linejoin: miter; stroke-miterlimit: 4; is-custom-font: none; font-file-url: none; fill: rgb(206,71,96); fill-rule: nonzero; opacity: 1;" transform=" translate(-243.484, -242.484)" d="M 419.798 477.569 H 67.17 c -18.547 0 -33.584 -15.037 -33.584 -33.584 V 40.983 c 0 -18.547 15.037 -33.584 33.584 -33.584 h 352.628 c 18.547 0 33.584 15.037 33.584 33.584 v 403.003 C 453.381 462.532 438.344 477.569 419.798 477.569" stroke-linecap="round"/>
</g>
		<g transform="matrix(2.0535 0 0 2.0535 -0.002 -0.002)" id="Layer_1">
<path style="stroke: none; stroke-width: 1; stroke-dasharray: none; stroke-linecap: butt; stroke-dashoffset: 0; stroke-linejoin: miter; stroke-miterlimit: 4; is-custom-font: none; font-file-url: none; fill: rgb(99,132,117); fill-rule: nonzero; opacity: 1;" transform=" translate(-243.484, -242.484)" d="M 277.068 242.484 c 0 18.547 -15.037 33.584 -33.584 33.584 S 209.9 261.031 209.9 242.484 s 15.037 -33.584 33.584 -33.584 S 277.068 223.938 277.068 242.484" stroke-linecap="round"/>
</g>
		<g transform="matrix(2.0535 0 0 2.0535 -25.8638 -0.002)" id="Layer_1">
<path style="stroke: none; stroke-width: 1; stroke-dasharray: none; stroke-linecap: butt; stroke-dashoffset: 0; stroke-linejoin: miter; stroke-miterlimit: 4; is-custom-font: none; font-file-url: none; fill: rgb(99,132,117); fill-rule: nonzero; opacity: 1;" transform=" translate(-230.89, -242.484)" d="M 251.88 242.484 c 0 18.547 -9.395 33.584 -20.99 33.584 s -20.99 -15.037 -20.99 -33.584 s 9.395 -33.584 20.99 -33.584 C 242.485 208.901 251.88 223.938 251.88 242.484" stroke-linecap="round"/>
</g>
		<g transform="matrix(2.0535 0 0 2.0535 0.001 137.9356)" id="Layer_1">
<path style="stroke: none; stroke-width: 1; stroke-dasharray: none; stroke-linecap: butt; stroke-dashoffset: 0; stroke-linejoin: miter; stroke-miterlimit: 4; is-custom-font: none; font-file-url: none; fill: rgb(0,0,0); fill-rule: nonzero; opacity: 1;" transform=" translate(-243.4855, -309.656)" d="M 444.986 485.97 H 41.983 c -23.146 0 -41.979 -18.833 -41.979 -41.979 V 141.738 c 0 -4.637 3.759 -8.396 8.396 -8.396 s 8.396 3.759 8.396 8.396 V 443.99 c 0 13.889 11.298 25.188 25.188 25.188 h 403.003 c 13.889 0 25.188 -11.298 25.188 -25.188 v -33.584 c 0 -4.641 3.755 -8.396 8.396 -8.396 s 8.396 3.755 8.396 8.396 v 33.584 C 486.965 467.137 468.132 485.97 444.986 485.97 z" stroke-linecap="round"/>
</g>
		<g transform="matrix(2.0535 0 0 2.0535 -0.002 -137.9357)" id="Layer_1">
<path style="stroke: none; stroke-width: 1; stroke-dasharray: none; stroke-linecap: butt; stroke-dashoffset: 0; stroke-linejoin: miter; stroke-miterlimit: 4; is-custom-font: none; font-file-url: none; fill: rgb(0,0,0); fill-rule: nonzero; opacity: 1;" transform=" translate(-243.484, -175.314)" d="M 478.569 351.628 c -4.641 0 -8.396 -3.755 -8.396 -8.396 V 40.979 c 0 -13.889 -11.298 -25.188 -25.188 -25.188 H 41.983 c -13.889 0 -25.188 11.298 -25.188 25.188 v 33.584 c 0 4.637 -3.759 8.396 -8.396 8.396 S 0.003 79.2 0.003 74.563 V 40.979 C 0.003 17.833 18.836 -1 41.983 -1 h 403.003 c 23.146 0 41.979 18.833 41.979 41.979 v 302.252 C 486.965 347.872 483.21 351.628 478.569 351.628 z" stroke-linecap="round"/>
</g>
		<g transform="matrix(2.0535 0 0 2.0535 -482.7491 -275.857)" id="Layer_1">
<path style="stroke: none; stroke-width: 1; stroke-dasharray: none; stroke-linecap: butt; stroke-dashoffset: 0; stroke-linejoin: miter; stroke-miterlimit: 4; is-custom-font: none; font-file-url: none; fill: rgb(0,0,0); fill-rule: nonzero; opacity: 1;" transform=" translate(-8.399, -108.15)" d="M 16.795 108.15 c 0 4.635 -3.761 8.396 -8.396 8.396 s -8.396 -3.761 -8.396 -8.396 s 3.761 -8.396 8.396 -8.396 S 16.795 103.515 16.795 108.15" stroke-linecap="round"/>
</g>
		<g transform="matrix(2.0535 0 0 2.0535 482.745 275.8548)" id="Layer_1">
<path style="stroke: none; stroke-width: 1; stroke-dasharray: none; stroke-linecap: butt; stroke-dashoffset: 0; stroke-linejoin: miter; stroke-miterlimit: 4; is-custom-font: none; font-file-url: none; fill: rgb(0,0,0); fill-rule: nonzero; opacity: 1;" transform=" translate(-478.569, -376.819)" d="M 486.965 376.819 c 0 4.635 -3.761 8.396 -8.396 8.396 s -8.396 -3.761 -8.396 -8.396 s 3.761 -8.396 8.396 -8.396 S 486.965 372.184 486.965 376.819" stroke-linecap="round"/>
</g>
		<g transform="matrix(2.0535 0 0 2.0535 -77.5874 120.6821)" id="Layer_1">
<path style="stroke: none; stroke-width: 1; stroke-dasharray: none; stroke-linecap: butt; stroke-dashoffset: 0; stroke-linejoin: miter; stroke-miterlimit: 4; is-custom-font: none; font-file-url: none; fill: rgb(0,0,0); fill-rule: nonzero; opacity: 1;" transform=" translate(-205.702, -301.254)" d="M 361.027 443.982 H 62.972 c -11.573 0 -20.99 -9.413 -20.99 -20.99 v -256.07 c 0 -4.637 3.759 -8.396 8.396 -8.396 s 8.396 3.759 8.396 8.396 v 256.071 c 0 2.312 1.882 4.198 4.198 4.198 h 298.054 c 4.641 0 8.396 3.755 8.396 8.396 S 365.667 443.982 361.027 443.982 z" stroke-linecap="round"/>
</g>
		<g transform="matrix(2.0535 0 0 2.0535 -0.0031 0.0041)" id="Layer_1">
<path style="stroke: none; stroke-width: 1; stroke-dasharray: none; stroke-linecap: butt; stroke-dashoffset: 0; stroke-linejoin: miter; stroke-miterlimit: 4; is-custom-font: none; font-file-url: none; fill: rgb(0,0,0); fill-rule: nonzero; opacity: 1;" transform=" translate(-243.4835, -242.487)" d="M 423.996 443.991 H 394.61 c -4.641 0 -8.396 -3.755 -8.396 -8.396 s 3.755 -8.396 8.396 -8.396 h 29.386 c 2.312 0 4.198 -1.886 4.198 -4.198 V 61.973 c 0 -2.316 -1.886 -4.198 -4.198 -4.198 H 62.972 c -2.316 0 -4.198 1.882 -4.198 4.198 v 37.782 c 0 4.637 -3.759 8.396 -8.396 8.396 s -8.396 -3.759 -8.396 -8.396 V 61.973 c 0 -11.573 9.417 -20.99 20.99 -20.99 h 361.023 c 11.577 0 20.99 9.417 20.99 20.99 v 361.028 C 444.986 434.578 435.573 443.991 423.996 443.991 z" stroke-linecap="round"/>
</g>
		<g transform="matrix(2.0535 0 0 2.0535 -396.5453 -224.1334)" id="Layer_1">
<path style="stroke: none; stroke-width: 1; stroke-dasharray: none; stroke-linecap: butt; stroke-dashoffset: 0; stroke-linejoin: miter; stroke-miterlimit: 4; is-custom-font: none; font-file-url: none; fill: rgb(0,0,0); fill-rule: nonzero; opacity: 1;" transform=" translate(-50.378, -133.338)" d="M 58.774 133.338 c 0 -4.635 -3.761 -8.396 -8.396 -8.396 s -8.396 3.761 -8.396 8.396 s 3.761 8.396 8.396 8.396 S 58.774 137.972 58.774 133.338" stroke-linecap="round"/>
</g>
		<g transform="matrix(2.0535 0 0 2.0535 -1.0288 -1.0308)" id="Layer_1">
<path style="stroke: none; stroke-width: 0; stroke-dasharray: none; stroke-linecap: butt; stroke-dashoffset: 0; stroke-linejoin: miter; stroke-miterlimit: 4; is-custom-font: none; font-file-url: none; fill: rgb(0,0,0); fill-rule: nonzero; opacity: 1;" transform=" translate(-243.484, -242.483)" d="M 243.484 284.46 c -23.146 0 -41.979 -18.833 -41.979 -41.975 c 0 -23.146 18.833 -41.979 41.979 -41.979 s 41.979 18.833 41.979 41.979 C 285.464 265.627 266.63 284.46 243.484 284.46 z M 243.484 217.297 c -13.889 0 -25.188 11.298 -25.188 25.188 c 0 13.885 11.298 25.184 25.188 25.184 c 13.889 0 25.188 -11.298 25.188 -25.184 C 268.672 228.596 257.373 217.297 243.484 217.297 z" stroke-linecap="round"/>
</g>
</g>
</g>
</svg>