<svg xmlns="http://www.w3.org/2000/svg" xmlns:xlink="http://www.w3.org/1999/xlink" version="1.1" width="1000" height="1000" viewBox="0 0 1000 1000" xml:space="preserve">
<desc>Created with Fabric.js 3.5.0</desc>
<defs>
</defs>
<rect x="0" y="0" width="100%" height="100%" fill="rgba(255,255,255,0)"/>
<g transform="matrix(2.0535 0 0 2.0535 500 500)" id="483730">
<g style="" vector-effect="non-scaling-stroke">
		<g transform="matrix(1 0 0 1 125.937 -0.001)" id="Layer_1">
<path style="stroke: none; stroke-width: 1; stroke-dasharray: none; stroke-linecap: butt; stroke-dashoffset: 0; stroke-linejoin: miter; stroke-miterlimit: 4; is-custom-font: none; font-file-url: none; fill: rgb(99,132,117); fill-rule: nonzero; opacity: 1;" transform=" translate(-369.422, -242.484)" d="M 444.986 477.569 H 293.859 c -18.547 0 -33.584 -15.037 -33.584 -33.584 V 40.983 c 0 -18.547 15.037 -33.584 33.584 -33.584 h 151.126 c 18.547 0 33.584 15.037 33.584 33.584 v 403.003 C 478.569 462.532 463.532 477.569 444.986 477.569" stroke-linecap="round"/>
</g>
		<g transform="matrix(1 0 0 1 -125.939 -0.001)" id="Layer_1">
<path style="stroke: none; stroke-width: 1; stroke-dasharray: none; stroke-linecap: butt; stroke-dashoffset: 0; stroke-linejoin: miter; stroke-miterlimit: 4; is-custom-font: none; font-file-url: none; fill: rgb(99,132,117); fill-rule: nonzero; opacity: 1;" transform=" translate(-117.546, -242.484)" d="M 193.109 477.569 H 41.983 c -18.547 0 -33.584 -15.037 -33.584 -33.584 V 40.983 c 0 -18.547 15.037 -33.584 33.584 -33.584 h 151.126 c 18.547 0 33.584 15.037 33.584 33.584 v 403.003 C 226.692 462.532 211.655 477.569 193.109 477.569" stroke-linecap="round"/>
</g>
		<g transform="matrix(1 0 0 1 -0.001 -0.001)" id="Layer_1">
<path style="stroke: none; stroke-width: 1; stroke-dasharray: none; stroke-linecap: butt; stroke-dashoffset: 0; stroke-linejoin: miter; stroke-miterlimit: 4; is-custom-font: none; font-file-url: none; fill: rgb(206,71,96); fill-rule: nonzero; opacity: 1;" transform=" translate(-243.484, -242.484)" d="M 419.798 477.569 H 67.17 c -18.547 0 -33.584 -15.037 -33.584 -33.584 V 40.983 c 0 -18.547 15.037 -33.584 33.584 -33.584 h 352.628 c 18.547 0 33.584 15.037 33.584 33.584 v 403.003 C 453.381 462.532 438.344 477.569 419.798 477.569" stroke-linecap="round"/>
</g>
		<g transform="matrix(1 0 0 1 -100.752 -100.751)" id="Layer_1">
<path style="stroke: none; stroke-width: 1; stroke-dasharray: none; stroke-linecap: butt; stroke-dashoffset: 0; stroke-linejoin: miter; stroke-miterlimit: 4; is-custom-font: none; font-file-url: none; fill: rgb(99,132,117); fill-rule: nonzero; opacity: 1;" transform=" translate(-142.733, -141.734)" d="M 176.317 141.734 c 0 18.547 -15.037 33.584 -33.584 33.584 s -33.584 -15.037 -33.584 -33.584 s 15.037 -33.584 33.584 -33.584 S 176.317 123.187 176.317 141.734" stroke-linecap="round"/>
</g>
		<g transform="matrix(1 0 0 1 -113.346 -100.751)" id="Layer_1">
<path style="stroke: none; stroke-width: 1; stroke-dasharray: none; stroke-linecap: butt; stroke-dashoffset: 0; stroke-linejoin: miter; stroke-miterlimit: 4; is-custom-font: none; font-file-url: none; fill: rgb(99,132,117); fill-rule: nonzero; opacity: 1;" transform=" translate(-130.139, -141.734)" d="M 151.129 141.734 c 0 18.547 -9.395 33.584 -20.99 33.584 s -20.99 -15.037 -20.99 -33.584 s 9.395 -33.584 20.99 -33.584 S 151.129 123.187 151.129 141.734" stroke-linecap="round"/>
</g>
		<g transform="matrix(1 0 0 1 100.749 -100.751)" id="Layer_1">
<path style="stroke: none; stroke-width: 1; stroke-dasharray: none; stroke-linecap: butt; stroke-dashoffset: 0; stroke-linejoin: miter; stroke-miterlimit: 4; is-custom-font: none; font-file-url: none; fill: rgb(99,132,117); fill-rule: nonzero; opacity: 1;" transform=" translate(-344.234, -141.734)" d="M 377.818 141.734 c 0 18.547 -15.037 33.584 -33.584 33.584 c -18.547 0 -33.584 -15.037 -33.584 -33.584 s 15.037 -33.584 33.584 -33.584 C 362.781 108.15 377.818 123.187 377.818 141.734" stroke-linecap="round"/>
</g>
		<g transform="matrix(1 0 0 1 88.156 -100.751)" id="Layer_1">
<path style="stroke: none; stroke-width: 1; stroke-dasharray: none; stroke-linecap: butt; stroke-dashoffset: 0; stroke-linejoin: miter; stroke-miterlimit: 4; is-custom-font: none; font-file-url: none; fill: rgb(99,132,117); fill-rule: nonzero; opacity: 1;" transform=" translate(-331.641, -141.734)" d="M 352.631 141.734 c 0 18.547 -9.395 33.584 -20.99 33.584 s -20.99 -15.037 -20.99 -33.584 s 9.395 -33.584 20.99 -33.584 C 343.236 108.15 352.631 123.187 352.631 141.734" stroke-linecap="round"/>
</g>
		<g transform="matrix(1 0 0 1 100.749 100.75)" id="Layer_1">
<path style="stroke: none; stroke-width: 1; stroke-dasharray: none; stroke-linecap: butt; stroke-dashoffset: 0; stroke-linejoin: miter; stroke-miterlimit: 4; is-custom-font: none; font-file-url: none; fill: rgb(99,132,117); fill-rule: nonzero; opacity: 1;" transform=" translate(-344.234, -343.235)" d="M 377.818 343.235 c 0 18.547 -15.037 33.584 -33.584 33.584 c -18.547 0 -33.584 -15.037 -33.584 -33.584 s 15.037 -33.584 33.584 -33.584 C 362.781 309.651 377.818 324.689 377.818 343.235" stroke-linecap="round"/>
</g>
		<g transform="matrix(1 0 0 1 88.156 100.75)" id="Layer_1">
<path style="stroke: none; stroke-width: 1; stroke-dasharray: none; stroke-linecap: butt; stroke-dashoffset: 0; stroke-linejoin: miter; stroke-miterlimit: 4; is-custom-font: none; font-file-url: none; fill: rgb(99,132,117); fill-rule: nonzero; opacity: 1;" transform=" translate(-331.641, -343.235)" d="M 352.631 343.235 c 0 18.547 -9.395 33.584 -20.99 33.584 s -20.99 -15.037 -20.99 -33.584 s 9.395 -33.584 20.99 -33.584 S 352.631 324.689 352.631 343.235" stroke-linecap="round"/>
</g>
		<g transform="matrix(1 0 0 1 -100.752 100.75)" id="Layer_1">
<path style="stroke: none; stroke-width: 1; stroke-dasharray: none; stroke-linecap: butt; stroke-dashoffset: 0; stroke-linejoin: miter; stroke-miterlimit: 4; is-custom-font: none; font-file-url: none; fill: rgb(99,132,117); fill-rule: nonzero; opacity: 1;" transform=" translate(-142.733, -343.235)" d="M 176.317 343.235 c 0 18.547 -15.037 33.584 -33.584 33.584 s -33.584 -15.037 -33.584 -33.584 s 15.037 -33.584 33.584 -33.584 S 176.317 324.689 176.317 343.235" stroke-linecap="round"/>
</g>
		<g transform="matrix(1 0 0 1 -113.346 100.75)" id="Layer_1">
<path style="stroke: none; stroke-width: 1; stroke-dasharray: none; stroke-linecap: butt; stroke-dashoffset: 0; stroke-linejoin: miter; stroke-miterlimit: 4; is-custom-font: none; font-file-url: none; fill: rgb(99,132,117); fill-rule: nonzero; opacity: 1;" transform=" translate(-130.139, -343.235)" d="M 151.129 343.235 c 0 18.547 -9.395 33.584 -20.99 33.584 s -20.99 -15.037 -20.99 -33.584 s 9.395 -33.584 20.99 -33.584 S 151.129 324.689 151.129 343.235" stroke-linecap="round"/>
</g>
		<g transform="matrix(1 0 0 1 0.0005 67.171)" id="Layer_1">
<path style="stroke: none; stroke-width: 1; stroke-dasharray: none; stroke-linecap: butt; stroke-dashoffset: 0; stroke-linejoin: miter; stroke-miterlimit: 4; is-custom-font: none; font-file-url: none; fill: rgb(0,0,0); fill-rule: nonzero; opacity: 1;" transform=" translate(-243.4855, -309.656)" d="M 444.986 485.97 H 41.983 c -23.146 0 -41.979 -18.833 -41.979 -41.979 V 141.738 c 0 -4.637 3.759 -8.396 8.396 -8.396 s 8.396 3.759 8.396 8.396 V 443.99 c 0 13.889 11.298 25.188 25.188 25.188 h 403.003 c 13.889 0 25.188 -11.298 25.188 -25.188 v -33.584 c 0 -4.641 3.755 -8.396 8.396 -8.396 s 8.396 3.755 8.396 8.396 v 33.584 C 486.965 467.137 468.132 485.97 444.986 485.97 z" stroke-linecap="round"/>
</g>
		<g transform="matrix(1 0 0 1 -0.001 -67.171)" id="Layer_1">
<path style="stroke: none; stroke-width: 1; stroke-dasharray: none; stroke-linecap: butt; stroke-dashoffset: 0; stroke-linejoin: miter; stroke-miterlimit: 4; is-custom-font: none; font-file-url: none; fill: rgb(0,0,0); fill-rule: nonzero; opacity: 1;" transform=" translate(-243.484, -175.314)" d="M 478.569 351.628 c -4.641 0 -8.396 -3.755 -8.396 -8.396 V 40.979 c 0 -13.889 -11.298 -25.188 -25.188 -25.188 H 41.983 c -13.889 0 -25.188 11.298 -25.188 25.188 v 33.584 c 0 4.637 -3.759 8.396 -8.396 8.396 S 0.003 79.2 0.003 74.563 V 40.979 C 0.003 17.833 18.836 -1 41.983 -1 h 403.003 c 23.146 0 41.979 18.833 41.979 41.979 v 302.252 C 486.965 347.872 483.21 351.628 478.569 351.628 z" stroke-linecap="round"/>
</g>
		<g transform="matrix(1 0 0 1 -235.086 -134.335)" id="Layer_1">
<path style="stroke: none; stroke-width: 1; stroke-dasharray: none; stroke-linecap: butt; stroke-dashoffset: 0; stroke-linejoin: miter; stroke-miterlimit: 4; is-custom-font: none; font-file-url: none; fill: rgb(0,0,0); fill-rule: nonzero; opacity: 1;" transform=" translate(-8.399, -108.15)" d="M 16.795 108.15 c 0 4.635 -3.761 8.396 -8.396 8.396 s -8.396 -3.761 -8.396 -8.396 s 3.761 -8.396 8.396 -8.396 S 16.795 103.515 16.795 108.15" stroke-linecap="round"/>
</g>
		<g transform="matrix(1 0 0 1 235.084 134.334)" id="Layer_1">
<path style="stroke: none; stroke-width: 1; stroke-dasharray: none; stroke-linecap: butt; stroke-dashoffset: 0; stroke-linejoin: miter; stroke-miterlimit: 4; is-custom-font: none; font-file-url: none; fill: rgb(0,0,0); fill-rule: nonzero; opacity: 1;" transform=" translate(-478.569, -376.819)" d="M 486.965 376.819 c 0 4.635 -3.761 8.396 -8.396 8.396 s -8.396 -3.761 -8.396 -8.396 s 3.761 -8.396 8.396 -8.396 S 486.965 372.184 486.965 376.819" stroke-linecap="round"/>
</g>
		<g transform="matrix(1 0 0 1 -37.785 58.769)" id="Layer_1">
<path style="stroke: none; stroke-width: 1; stroke-dasharray: none; stroke-linecap: butt; stroke-dashoffset: 0; stroke-linejoin: miter; stroke-miterlimit: 4; is-custom-font: none; font-file-url: none; fill: rgb(0,0,0); fill-rule: nonzero; opacity: 1;" transform=" translate(-205.7, -301.254)" d="M 361.027 443.982 H 62.968 c -11.573 0 -20.99 -9.413 -20.99 -20.99 v -256.07 c 0 -4.637 3.759 -8.396 8.396 -8.396 s 8.396 3.759 8.396 8.396 v 256.071 c 0 2.312 1.882 4.198 4.198 4.198 h 298.058 c 4.641 0 8.396 3.755 8.396 8.396 S 365.667 443.982 361.027 443.982 z" stroke-linecap="round"/>
</g>
		<g transform="matrix(1 0 0 1 -0.0015 0.002)" id="Layer_1">
<path style="stroke: none; stroke-width: 1; stroke-dasharray: none; stroke-linecap: butt; stroke-dashoffset: 0; stroke-linejoin: miter; stroke-miterlimit: 4; is-custom-font: none; font-file-url: none; fill: rgb(0,0,0); fill-rule: nonzero; opacity: 1;" transform=" translate(-243.4835, -242.487)" d="M 423.996 443.991 H 394.61 c -4.641 0 -8.396 -3.755 -8.396 -8.396 s 3.755 -8.396 8.396 -8.396 h 29.386 c 2.312 0 4.198 -1.886 4.198 -4.198 V 61.973 c 0 -2.316 -1.886 -4.198 -4.198 -4.198 H 62.972 c -2.316 0 -4.198 1.882 -4.198 4.198 v 37.782 c 0 4.637 -3.759 8.396 -8.396 8.396 s -8.396 -3.759 -8.396 -8.396 V 61.973 c 0 -11.573 9.417 -20.99 20.99 -20.99 h 361.023 c 11.577 0 20.99 9.417 20.99 20.99 v 361.028 C 444.986 434.578 435.573 443.991 423.996 443.991 z" stroke-linecap="round"/>
</g>
		<g transform="matrix(1 0 0 1 -193.107 -109.147)" id="Layer_1">
<path style="stroke: none; stroke-width: 1; stroke-dasharray: none; stroke-linecap: butt; stroke-dashoffset: 0; stroke-linejoin: miter; stroke-miterlimit: 4; is-custom-font: none; font-file-url: none; fill: rgb(0,0,0); fill-rule: nonzero; opacity: 1;" transform=" translate(-50.378, -133.338)" d="M 58.774 133.338 c 0 -4.635 -3.761 -8.396 -8.396 -8.396 s -8.396 3.761 -8.396 8.396 s 3.761 8.396 8.396 8.396 S 58.774 137.972 58.774 133.338" stroke-linecap="round"/>
</g>
		<g transform="matrix(1 0 0 1 -100.752 -100.75)" id="Layer_1">
<path style="stroke: none; stroke-width: 1; stroke-dasharray: none; stroke-linecap: butt; stroke-dashoffset: 0; stroke-linejoin: miter; stroke-miterlimit: 4; is-custom-font: none; font-file-url: none; fill: rgb(0,0,0); fill-rule: nonzero; opacity: 1;" transform=" translate(-142.733, -141.735)" d="M 142.733 183.714 c -23.146 0 -41.979 -18.833 -41.979 -41.979 s 18.833 -41.979 41.979 -41.979 s 41.979 18.833 41.979 41.979 S 165.879 183.714 142.733 183.714 z M 142.733 116.547 c -13.889 0 -25.188 11.298 -25.188 25.188 s 11.298 25.188 25.188 25.188 c 13.889 0 25.188 -11.298 25.188 -25.188 S 156.623 116.547 142.733 116.547 z" stroke-linecap="round"/>
</g>
		<g transform="matrix(1 0 0 1 100.75 -100.75)" id="Layer_1">
<path style="stroke: none; stroke-width: 1; stroke-dasharray: none; stroke-linecap: butt; stroke-dashoffset: 0; stroke-linejoin: miter; stroke-miterlimit: 4; is-custom-font: none; font-file-url: none; fill: rgb(0,0,0); fill-rule: nonzero; opacity: 1;" transform=" translate(-344.235, -141.735)" d="M 344.235 183.714 c -23.146 0 -41.979 -18.833 -41.979 -41.979 s 18.833 -41.979 41.979 -41.979 s 41.979 18.833 41.979 41.979 S 367.381 183.714 344.235 183.714 z M 344.235 116.547 c -13.889 0 -25.188 11.298 -25.188 25.188 s 11.298 25.188 25.188 25.188 c 13.889 0 25.188 -11.298 25.188 -25.188 S 358.124 116.547 344.235 116.547 z" stroke-linecap="round"/>
</g>
		<g transform="matrix(1 0 0 1 100.75 100.747)" id="Layer_1">
<path style="stroke: none; stroke-width: 1; stroke-dasharray: none; stroke-linecap: butt; stroke-dashoffset: 0; stroke-linejoin: miter; stroke-miterlimit: 4; is-custom-font: none; font-file-url: none; fill: rgb(0,0,0); fill-rule: nonzero; opacity: 1;" transform=" translate(-344.235, -343.232)" d="M 344.235 385.211 c -23.146 0 -41.979 -18.833 -41.979 -41.979 s 18.833 -41.979 41.979 -41.979 s 41.979 18.833 41.979 41.979 S 367.381 385.211 344.235 385.211 z M 344.235 318.044 c -13.889 0 -25.188 11.298 -25.188 25.188 s 11.298 25.188 25.188 25.188 c 13.889 0 25.188 -11.298 25.188 -25.188 S 358.124 318.044 344.235 318.044 z" stroke-linecap="round"/>
</g>
		<g transform="matrix(1 0 0 1 -100.752 100.747)" id="Layer_1">
<path style="stroke: none; stroke-width: 1; stroke-dasharray: none; stroke-linecap: butt; stroke-dashoffset: 0; stroke-linejoin: miter; stroke-miterlimit: 4; is-custom-font: none; font-file-url: none; fill: rgb(0,0,0); fill-rule: nonzero; opacity: 1;" transform=" translate(-142.733, -343.232)" d="M 142.733 385.211 c -23.146 0 -41.979 -18.833 -41.979 -41.979 s 18.833 -41.979 41.979 -41.979 s 41.979 18.833 41.979 41.979 C 184.713 366.378 165.879 385.211 142.733 385.211 z M 142.733 318.044 c -13.889 0 -25.188 11.298 -25.188 25.188 s 11.298 25.188 25.188 25.188 c 13.889 0 25.188 -11.298 25.188 -25.188 S 156.623 318.044 142.733 318.044 z" stroke-linecap="round"/>
</g>
</g>
</g>
</svg>