<svg xmlns="http://www.w3.org/2000/svg" xmlns:xlink="http://www.w3.org/1999/xlink" version="1.1" width="1000" height="1000" viewBox="0 0 1000 1000" xml:space="preserve">
<desc>Created with Fabric.js 3.5.0</desc>
<defs>
</defs>
<rect x="0" y="0" width="100%" height="100%" fill="rgba(255,255,255,0)"/>
<g transform="matrix(1 0 0 1 49.5 49.5)" id="476698">
<rect style="stroke: none; stroke-width: 0; stroke-dasharray: none; stroke-linecap: butt; stroke-dashoffset: 0; stroke-linejoin: miter; stroke-miterlimit: 4; is-custom-font: none; font-file-url: none; fill: rgb(0,0,0); fill-opacity: 0; fill-rule: nonzero; opacity: 1;" x="-50" y="-50" rx="0" ry="0" width="100" height="100"/>
</g>
<g transform="matrix(1.8047 0 0 1.8047 537.8398 715.447)" id="Layer_1">
<path style="stroke: none; stroke-width: 0; stroke-dasharray: none; stroke-linecap: butt; stroke-dashoffset: 0; stroke-linejoin: miter; stroke-miterlimit: 4; is-custom-font: none; font-file-url: none; fill: rgb(239,200,162); fill-rule: nonzero; opacity: 1;" transform=" translate(-271.8071, -368.2219)" d="M 488.481 327.948 c 6.717 -5.038 7.556 -15.113 2.519 -21.829 c -10.915 -14.273 -19.311 -18.471 -55.413 0.84 l -73.044 44.498 c -22.669 11.754 -80.601 8.396 -105.788 8.396 c 0 0 59.611 4.198 36.102 -31.065 c -11.754 -17.631 -31.904 -27.706 -53.734 -27.706 h -32.744 c -19.311 0 -37.782 -5.877 -52.894 -17.631 c -36.102 -26.867 -104.109 26.027 -104.109 26.027 v 151.126 h 117.543 c 16.792 0 33.584 -1.679 50.375 -4.198 l 109.147 -16.792 c 3.358 0 7.556 -0.84 10.915 -0.84 l 0 0 c 9.235 -0.84 16.792 -5.877 23.509 -11.754 L 488.481 327.948 z" stroke-linecap="round"/>
</g>
<g transform="matrix(1.8059 0 0 1.8059 98.5116 741.702)" id="Layer_1">
<polygon style="stroke: none; stroke-width: 0; stroke-dasharray: none; stroke-linecap: butt; stroke-dashoffset: 0; stroke-linejoin: miter; stroke-miterlimit: 4; is-custom-font: none; font-file-url: none; fill: rgb(206,71,96); fill-rule: nonzero; opacity: 1;" points="-20.9895,100.7505 20.9895,100.7505 20.9895,-100.7505 -20.9895,-100.7505 "/>
</g>
<g transform="matrix(1.8059 0 0 1.8059 540.6138 714.1198)" id="Layer_1">
<path style="stroke: rgb(0,0,0); stroke-width: 3; stroke-dasharray: none; stroke-linecap: butt; stroke-dashoffset: 0; stroke-linejoin: miter; stroke-miterlimit: 4; is-custom-font: none; font-file-url: none; fill: rgb(0,0,0); fill-rule: nonzero; opacity: 1;" transform=" translate(-271.6954, -368.267)" d="M 166.918 468.999 H 40.979 v -163.72 l 3.358 -2.519 c 3.358 -2.519 73.884 -56.253 114.184 -26.027 c 13.433 10.075 30.225 15.952 47.857 15.952 h 32.744 c 24.348 0 47.017 11.754 60.45 31.065 c 7.556 10.915 9.235 20.15 5.038 27.706 c 20.99 0 43.659 -1.679 53.734 -7.556 l 72.205 -44.498 c 36.942 -19.311 52.055 -19.311 67.167 0.84 c 7.556 10.075 5.877 25.188 -4.198 33.584 l 0 0 L 366.74 433.737 c -8.396 7.556 -17.631 12.594 -27.706 14.273 c -3.358 0.84 -7.556 1.679 -11.754 1.679 l -109.147 16.792 C 201.341 467.32 183.71 468.999 166.918 468.999 z M 57.771 452.208 h 109.147 c 15.952 0 32.744 -0.84 48.696 -3.358 l 110.826 -16.792 c 3.358 0 5.877 0 9.235 -0.84 c 7.556 -0.84 14.273 -4.198 19.311 -10.075 l 0.84 -0.84 l 127.618 -99.072 c 3.358 -2.519 3.358 -7.556 1.679 -10.075 c -6.717 -10.075 -10.075 -14.273 -45.338 3.358 l -72.205 44.498 c -19.311 10.075 -56.253 10.075 -95.713 9.235 c -1.679 0 -3.358 -0.84 -4.198 -0.84 c -5.038 0 -8.396 -0.84 -10.915 -0.84 l 0.84 -14.273 c 2.519 0 5.877 0 9.236 0 c 10.915 -0.84 20.99 -2.519 23.509 -6.717 c 0.84 -1.679 0 -6.717 -3.358 -11.754 c -10.915 -15.113 -28.546 -24.348 -47.857 -24.348 H 206.38 c -20.99 0 -41.979 -6.717 -57.932 -19.311 c -23.509 -17.631 -70.526 9.235 -90.676 23.509 L 57.771 452.208 L 57.771 452.208 z M 488.481 327.948 L 488.481 327.948 L 488.481 327.948 z" stroke-linecap="round"/>
</g>
<g transform="matrix(1.8059 0 0 1.8059 98.5117 741.702)" id="Layer_1">
<path style="stroke: none; stroke-width: 0; stroke-dasharray: none; stroke-linecap: butt; stroke-dashoffset: 0; stroke-linejoin: miter; stroke-miterlimit: 4; is-custom-font: none; font-file-url: none; fill: rgb(0,0,0); fill-rule: nonzero; opacity: 1;" transform=" translate(-28.3855, -385.0405)" d="M 57.771 494.187 H -1 V 275.894 h 58.771 V 494.187 z M 15.792 477.395 H 40.98 v -184.71 H 15.792 V 477.395 z" stroke-linecap="round"/>
</g>
<g transform="matrix(1.8059 0 0 1.8059 441.9343 718.9575)" id="Layer_1">
<path style="stroke: none; stroke-width: 0; stroke-dasharray: none; stroke-linecap: butt; stroke-dashoffset: 0; stroke-linejoin: miter; stroke-miterlimit: 4; is-custom-font: none; font-file-url: none; fill: rgb(0,0,0); fill-rule: nonzero; opacity: 1;" transform=" translate(-218.5525, -372.446)" d="M 161.041 393.436 c -5.038 0 -8.396 -3.358 -8.396 -8.396 c 0 -20.99 15.952 -33.584 41.979 -33.584 h 81.44 c 5.038 0 8.396 3.358 8.396 8.396 s -3.358 8.396 -8.396 8.396 h -81.44 c -25.188 0 -25.188 12.594 -25.188 16.792 C 169.437 390.078 166.078 393.436 161.041 393.436 z" stroke-linecap="round"/>
</g>
<g transform="matrix(1.4987 0.7806 -0.7806 1.4987 635.2408 393.4151)" id="916141">
<g style="">
		<g transform="matrix(1 0 0 1 0 0.001)" id="Layer_1">
<polygon style="stroke: none; stroke-width: 0; stroke-dasharray: none; stroke-linecap: butt; stroke-dashoffset: 0; stroke-linejoin: miter; stroke-miterlimit: 4; is-custom-font: none; font-file-url: none; fill: rgb(206,71,96); fill-rule: nonzero; opacity: 1;" points="-67.167,67.167 67.167,67.167 67.167,-67.167 -67.167,-67.167 "/>
</g>
		<g transform="matrix(1 0 0 1 0 0)" id="Layer_1">
<path style="stroke: none; stroke-width: 0; stroke-dasharray: none; stroke-linecap: butt; stroke-dashoffset: 0; stroke-linejoin: miter; stroke-miterlimit: 4; is-custom-font: none; font-file-url: none; fill: rgb(0,0,0); fill-rule: nonzero; opacity: 1;" transform=" translate(-82.959, -145.924)" d="M 150.126 221.487 H 15.792 c -4.637 0 -8.396 -3.759 -8.396 -8.396 V 78.757 c 0 -4.637 3.759 -8.396 8.396 -8.396 h 134.334 c 4.637 0 8.396 3.759 8.396 8.396 v 134.334 C 158.522 217.728 154.763 221.487 150.126 221.487 z M 24.188 204.695 H 141.73 V 87.153 H 24.188 V 204.695 z" stroke-linecap="round"/>
</g>
		<g transform="matrix(1 0 0 1 0 0.001)" id="Layer_1">
<path style="stroke: none; stroke-width: 0; stroke-dasharray: none; stroke-linecap: butt; stroke-dashoffset: 0; stroke-linejoin: miter; stroke-miterlimit: 4; is-custom-font: none; font-file-url: none; fill: rgb(0,0,0); fill-rule: nonzero; opacity: 1;" transform=" translate(-82.959, -145.925)" d="M 91.355 145.925 c 0 -4.635 -3.761 -8.396 -8.396 -8.396 s -8.396 3.761 -8.396 8.396 s 3.761 8.396 8.396 8.396 C 87.593 154.321 91.355 150.559 91.355 145.925" stroke-linecap="round"/>
</g>
</g>
</g>
</svg>