<?xml version="1.0" encoding="iso-8859-1"?>
<!-- Generator: Adobe Illustrator 19.0.0, SVG Export Plug-In . SVG Version: 6.00 Build 0)  -->
<svg version="1.1" id="Layer_1" xmlns="http://www.w3.org/2000/svg" xmlns:xlink="http://www.w3.org/1999/xlink" x="0px" y="0px"
	 viewBox="0 0 503.412 503.412" style="enable-background:new 0 0 503.412 503.412;" xml:space="preserve">
<g transform="translate(1 1)">
	<g>
		<polygon style="fill:#FFA800;" points="318.044,149.955 452.378,149.955 452.378,15.621 318.044,15.621 		"/>
		<path style="fill:#FFA800;" d="M206.379,301.081h32.744c9.235,0,17.631,1.679,26.027,5.038l63.809-63.809l-94.874-94.874
			l-94.874,94.874l57.932,57.932C200.501,301.081,203.86,301.081,206.379,301.081"/>
	</g>
	<path style="fill:#FFE100;" d="M488.481,327.948c6.717-5.038,7.556-15.113,2.519-21.829c-10.915-14.273-19.311-18.471-55.413,0.84
		l-73.044,44.498c-22.669,11.754-80.601,8.396-105.788,8.396c0,0,59.611,4.198,36.102-31.065
		c-11.754-17.631-31.904-27.706-53.734-27.706h-32.744c-19.311,0-37.782-5.877-52.894-17.631
		c-36.102-26.867-104.109,26.027-104.109,26.027v151.126h117.543c16.792,0,33.584-1.679,50.375-4.198l109.147-16.792
		c3.358,0,7.556-0.84,10.915-0.84l0,0c9.235-0.84,16.792-5.877,23.509-11.754L488.481,327.948z"/>
	<polygon style="fill:#FFA800;" points="7.396,485.791 49.375,485.791 49.375,284.29 7.396,284.29 	"/>
	<path d="M166.918,468.999H40.979v-163.72l3.358-2.519c3.358-2.519,73.884-56.253,114.184-26.027
		c13.433,10.075,30.225,15.952,47.857,15.952h32.744c24.348,0,47.017,11.754,60.45,31.065c7.556,10.915,9.235,20.15,5.038,27.706
		c20.99,0,43.659-1.679,53.734-7.556l72.205-44.498c36.942-19.311,52.055-19.311,67.167,0.84
		c7.556,10.075,5.877,25.188-4.198,33.584l0,0L366.74,433.737c-8.396,7.556-17.631,12.594-27.706,14.273
		c-3.358,0.84-7.556,1.679-11.754,1.679l-109.147,16.792C201.341,467.32,183.71,468.999,166.918,468.999z M57.771,452.208h109.147
		c15.952,0,32.744-0.84,48.696-3.358l110.826-16.792c3.358,0,5.877,0,9.235-0.84c7.556-0.84,14.273-4.198,19.311-10.075l0.84-0.84
		l127.618-99.072c3.358-2.519,3.358-7.556,1.679-10.075c-6.717-10.075-10.075-14.273-45.338,3.358l-72.205,44.498
		c-19.311,10.075-56.253,10.075-95.713,9.235c-1.679,0-3.358-0.84-4.198-0.84c-5.038,0-8.396-0.84-10.915-0.84l0.84-14.273
		c2.519,0,5.877,0,9.236,0c10.915-0.84,20.99-2.519,23.509-6.717c0.84-1.679,0-6.717-3.358-11.754
		c-10.915-15.113-28.546-24.348-47.857-24.348H206.38c-20.99,0-41.979-6.717-57.932-19.311
		c-23.509-17.631-70.526,9.235-90.676,23.509L57.771,452.208L57.771,452.208z M488.481,327.948L488.481,327.948L488.481,327.948z"/>
	<path d="M57.771,494.187H-1V275.894h58.771V494.187z M15.792,477.395H40.98v-184.71H15.792V477.395z"/>
	<path d="M161.041,393.436c-5.038,0-8.396-3.358-8.396-8.396c0-20.99,15.952-33.584,41.979-33.584h81.44
		c5.038,0,8.396,3.358,8.396,8.396s-3.358,8.396-8.396,8.396h-81.44c-25.188,0-25.188,12.594-25.188,16.792
		C169.437,390.078,166.078,393.436,161.041,393.436z"/>
	<path d="M192.945,236.433c-3.358-3.358-8.396-3.358-11.754,0s-3.358,8.396,0,11.754s8.396,3.358,11.754,0
		C195.464,244.829,195.464,239.791,192.945,236.433"/>
	<path d="M239.962,236.433c-3.358-3.358-8.396-3.358-11.754,0s-3.358,8.396,0,11.754s8.396,3.358,11.754,0
		S243.321,239.791,239.962,236.433"/>
	<path d="M287.819,236.433c-3.358-3.358-8.396-3.358-11.754,0s-3.358,8.396,0,11.754s8.396,3.358,11.754,0
		S291.177,239.791,287.819,236.433"/>
	<path d="M452.378,158.351H318.044c-5.038,0-8.396-3.358-8.396-8.396V15.621c0-5.038,3.358-8.396,8.396-8.396h134.334
		c5.038,0,8.396,3.358,8.396,8.396v134.334C460.774,154.993,457.416,158.351,452.378,158.351z M326.44,141.559h117.543V24.017
		H326.44V141.559z"/>
	<path d="M360.024,49.205c0-5.038-3.358-8.396-8.396-8.396s-8.396,3.358-8.396,8.396s3.358,8.396,8.396,8.396
		S360.024,54.242,360.024,49.205"/>
	<path d="M427.191,49.205c0-5.038-3.358-8.396-8.396-8.396s-8.396,3.358-8.396,8.396s3.358,8.396,8.396,8.396
		C423.832,57.6,427.191,54.242,427.191,49.205"/>
	<path d="M360.024,116.372c0-5.038-3.358-8.396-8.396-8.396s-8.396,3.358-8.396,8.396c0,5.038,3.358,8.396,8.396,8.396
		S360.024,121.409,360.024,116.372"/>
	<path d="M393.607,82.788c0-5.038-3.358-8.396-8.396-8.396s-8.396,3.358-8.396,8.396s3.358,8.396,8.396,8.396
		C390.249,91.184,393.607,87.826,393.607,82.788"/>
	<path d="M427.191,116.372c0-5.038-3.358-8.396-8.396-8.396s-8.396,3.358-8.396,8.396c0,5.038,3.358,8.396,8.396,8.396
		C423.832,124.768,427.191,121.409,427.191,116.372"/>
	<path d="M265.15,314.515c-0.84,0-2.519,0-3.358-0.84c-7.556-3.358-15.113-4.198-22.669-4.198h-32.744c-3.358,0-6.717,0-10.075-0.84
		c-1.679,0-3.358-0.84-5.038-2.519l-57.932-57.932c-3.358-3.358-3.358-8.396,0-11.754l94.874-94.874
		c3.358-3.358,8.396-3.358,11.754,0l94.874,94.874c3.358,3.358,3.358,8.396,0,11.754l-63.809,63.809
		C269.348,313.675,267.669,314.515,265.15,314.515z M201.341,292.686c1.679,0,3.358,0,5.038,0h32.744
		c8.396,0,15.952,1.679,23.509,4.198l54.573-54.573l-83.119-83.119l-83.119,83.119L201.341,292.686z"/>
</g>
<g>
</g>
<g>
</g>
<g>
</g>
<g>
</g>
<g>
</g>
<g>
</g>
<g>
</g>
<g>
</g>
<g>
</g>
<g>
</g>
<g>
</g>
<g>
</g>
<g>
</g>
<g>
</g>
<g>
</g>
</svg>
