<svg xmlns="http://www.w3.org/2000/svg" xmlns:xlink="http://www.w3.org/1999/xlink" version="1.1" width="1000" height="1000" viewBox="0 0 1000 1000" xml:space="preserve">
<desc>Created with Fabric.js 3.5.0</desc>
<defs>
</defs>
<rect x="0" y="0" width="100%" height="100%" fill="rgba(255,255,255,0)"/>
<g transform="matrix(1 0 0 1 500 565.0332)" id="597307">
<g style="">
		<g transform="matrix(1.8059 0 0 1.8059 38.1067 150.2962)" id="Layer_1">
<path style="stroke: none; stroke-width: 0; stroke-dasharray: none; stroke-linecap: butt; stroke-dashoffset: 0; stroke-linejoin: miter; stroke-miterlimit: 4; is-custom-font: none; font-file-url: none; fill: rgb(239,200,162); fill-rule: nonzero; opacity: 1;" transform=" translate(-271.8071, -368.2219)" d="M 488.481 327.948 c 6.717 -5.038 7.556 -15.113 2.519 -21.829 c -10.915 -14.273 -19.311 -18.471 -55.413 0.84 l -73.044 44.498 c -22.669 11.754 -80.601 8.396 -105.788 8.396 c 0 0 59.611 4.198 36.102 -31.065 c -11.754 -17.631 -31.904 -27.706 -53.734 -27.706 h -32.744 c -19.311 0 -37.782 -5.877 -52.894 -17.631 c -36.102 -26.867 -104.109 26.027 -104.109 26.027 v 151.126 h 117.543 c 16.792 0 33.584 -1.679 50.375 -4.198 l 109.147 -16.792 c 3.358 0 7.556 -0.84 10.915 -0.84 l 0 0 c 9.235 -0.84 16.792 -5.877 23.509 -11.754 L 488.481 327.948 z" stroke-linecap="round"/>
</g>
		<g transform="matrix(1.8059 0 0 1.8059 -401.4884 176.6688)" id="Layer_1">
<polygon style="stroke: none; stroke-width: 0; stroke-dasharray: none; stroke-linecap: butt; stroke-dashoffset: 0; stroke-linejoin: miter; stroke-miterlimit: 4; is-custom-font: none; font-file-url: none; fill: rgb(255,168,0); fill-rule: nonzero; opacity: 1;" points="-20.9895,100.7505 20.9895,100.7505 20.9895,-100.7505 -20.9895,-100.7505 "/>
</g>
		<g transform="matrix(1.8059 0 0 1.8059 37.9049 146.3777)" id="Layer_1">
<path style="stroke: none; stroke-width: 0; stroke-dasharray: none; stroke-linecap: butt; stroke-dashoffset: 0; stroke-linejoin: miter; stroke-miterlimit: 4; is-custom-font: none; font-file-url: none; fill: rgb(0,0,0); fill-rule: nonzero; opacity: 1;" transform=" translate(-271.6954, -368.267)" d="M 166.918 468.999 H 40.979 v -163.72 l 3.358 -2.519 c 3.358 -2.519 73.884 -56.253 114.184 -26.027 c 13.433 10.075 30.225 15.952 47.857 15.952 h 32.744 c 24.348 0 47.017 11.754 60.45 31.065 c 7.556 10.915 9.235 20.15 5.038 27.706 c 20.99 0 43.659 -1.679 53.734 -7.556 l 72.205 -44.498 c 36.942 -19.311 52.055 -19.311 67.167 0.84 c 7.556 10.075 5.877 25.188 -4.198 33.584 l 0 0 L 366.74 433.737 c -8.396 7.556 -17.631 12.594 -27.706 14.273 c -3.358 0.84 -7.556 1.679 -11.754 1.679 l -109.147 16.792 C 201.341 467.32 183.71 468.999 166.918 468.999 z M 57.771 452.208 h 109.147 c 15.952 0 32.744 -0.84 48.696 -3.358 l 110.826 -16.792 c 3.358 0 5.877 0 9.235 -0.84 c 7.556 -0.84 14.273 -4.198 19.311 -10.075 l 0.84 -0.84 l 127.618 -99.072 c 3.358 -2.519 3.358 -7.556 1.679 -10.075 c -6.717 -10.075 -10.075 -14.273 -45.338 3.358 l -72.205 44.498 c -19.311 10.075 -56.253 10.075 -95.713 9.235 c -1.679 0 -3.358 -0.84 -4.198 -0.84 c -5.038 0 -8.396 -0.84 -10.915 -0.84 l 0.84 -14.273 c 2.519 0 5.877 0 9.236 0 c 10.915 -0.84 20.99 -2.519 23.509 -6.717 c 0.84 -1.679 0 -6.717 -3.358 -11.754 c -10.915 -15.113 -28.546 -24.348 -47.857 -24.348 H 206.38 c -20.99 0 -41.979 -6.717 -57.932 -19.311 c -23.509 -17.631 -70.526 9.235 -90.676 23.509 L 57.771 452.208 L 57.771 452.208 z M 488.481 327.948 L 488.481 327.948 L 488.481 327.948 z" stroke-linecap="round"/>
</g>
		<g transform="matrix(1.8059 0 0 1.8059 -401.4883 176.6688)" id="Layer_1">
<path style="stroke: none; stroke-width: 0; stroke-dasharray: none; stroke-linecap: butt; stroke-dashoffset: 0; stroke-linejoin: miter; stroke-miterlimit: 4; is-custom-font: none; font-file-url: none; fill: rgb(0,0,0); fill-rule: nonzero; opacity: 1;" transform=" translate(-28.3855, -385.0405)" d="M 57.771 494.187 H -1 V 275.894 h 58.771 V 494.187 z M 15.792 477.395 H 40.98 v -184.71 H 15.792 V 477.395 z" stroke-linecap="round"/>
</g>
		<g transform="matrix(1.8059 0 0 1.8059 -58.0657 153.9243)" id="Layer_1">
<path style="stroke: none; stroke-width: 0; stroke-dasharray: none; stroke-linecap: butt; stroke-dashoffset: 0; stroke-linejoin: miter; stroke-miterlimit: 4; is-custom-font: none; font-file-url: none; fill: rgb(0,0,0); fill-rule: nonzero; opacity: 1;" transform=" translate(-218.5525, -372.446)" d="M 161.041 393.436 c -5.038 0 -8.396 -3.358 -8.396 -8.396 c 0 -20.99 15.952 -33.584 41.979 -33.584 h 81.44 c 5.038 0 8.396 3.358 8.396 8.396 s -3.358 8.396 -8.396 8.396 h -81.44 c -25.188 0 -25.188 12.594 -25.188 16.792 C 169.437 390.078 166.078 393.436 161.041 393.436 z" stroke-linecap="round"/>
</g>
		<g transform="matrix(0.8636 -0.5042 0.5042 0.8636 167.8172 -185.8917)" id="398306">
<g style="">
		<g transform="matrix(1.8059 0 0 1.8059 0 0)" id="Layer_1">
<polygon style="stroke: none; stroke-width: 1; stroke-dasharray: none; stroke-linecap: butt; stroke-dashoffset: 0; stroke-linejoin: miter; stroke-miterlimit: 4; is-custom-font: none; font-file-url: none; fill: rgb(255,168,0); fill-rule: nonzero; opacity: 1;" points="-67.167,67.167 67.167,67.167 67.167,-67.167 -67.167,-67.167 "/>
</g>
		<g transform="matrix(1.8059 0 0 1.8059 0 0)" id="Layer_1">
<path style="stroke: none; stroke-width: 1; stroke-dasharray: none; stroke-linecap: butt; stroke-dashoffset: 0; stroke-linejoin: miter; stroke-miterlimit: 4; is-custom-font: none; font-file-url: none; fill: rgb(0,0,0); fill-rule: nonzero; opacity: 1;" transform=" translate(-385.211, -82.788)" d="M 452.378 158.351 H 318.044 c -5.038 0 -8.396 -3.358 -8.396 -8.396 V 15.621 c 0 -5.038 3.358 -8.396 8.396 -8.396 h 134.334 c 5.038 0 8.396 3.358 8.396 8.396 v 134.334 C 460.774 154.993 457.416 158.351 452.378 158.351 z M 326.44 141.559 h 117.543 V 24.017 H 326.44 V 141.559 z" stroke-linecap="round"/>
</g>
		<g transform="matrix(1.8059 0 0 1.8059 -60.6475 -60.6475)" id="Layer_1">
<path style="stroke: none; stroke-width: 1; stroke-dasharray: none; stroke-linecap: butt; stroke-dashoffset: 0; stroke-linejoin: miter; stroke-miterlimit: 4; is-custom-font: none; font-file-url: none; fill: rgb(0,0,0); fill-rule: nonzero; opacity: 1;" transform=" translate(-351.628, -49.205)" d="M 360.024 49.205 c 0 -5.038 -3.358 -8.396 -8.396 -8.396 s -8.396 3.358 -8.396 8.396 s 3.358 8.396 8.396 8.396 S 360.024 54.242 360.024 49.205" stroke-linecap="round"/>
</g>
		<g transform="matrix(1.8059 0 0 1.8059 60.6494 -60.6475)" id="Layer_1">
<path style="stroke: none; stroke-width: 1; stroke-dasharray: none; stroke-linecap: butt; stroke-dashoffset: 0; stroke-linejoin: miter; stroke-miterlimit: 4; is-custom-font: none; font-file-url: none; fill: rgb(0,0,0); fill-rule: nonzero; opacity: 1;" transform=" translate(-418.795, -49.205)" d="M 427.191 49.205 c 0 -5.038 -3.358 -8.396 -8.396 -8.396 s -8.396 3.358 -8.396 8.396 s 3.358 8.396 8.396 8.396 C 423.832 57.6 427.191 54.242 427.191 49.205" stroke-linecap="round"/>
</g>
		<g transform="matrix(1.8059 0 0 1.8059 -60.6475 60.6494)" id="Layer_1">
<path style="stroke: none; stroke-width: 1; stroke-dasharray: none; stroke-linecap: butt; stroke-dashoffset: 0; stroke-linejoin: miter; stroke-miterlimit: 4; is-custom-font: none; font-file-url: none; fill: rgb(0,0,0); fill-rule: nonzero; opacity: 1;" transform=" translate(-351.628, -116.372)" d="M 360.024 116.372 c 0 -5.038 -3.358 -8.396 -8.396 -8.396 s -8.396 3.358 -8.396 8.396 c 0 5.038 3.358 8.396 8.396 8.396 S 360.024 121.409 360.024 116.372" stroke-linecap="round"/>
</g>
		<g transform="matrix(1.8059 0 0 1.8059 0 0)" id="Layer_1">
<path style="stroke: none; stroke-width: 1; stroke-dasharray: none; stroke-linecap: butt; stroke-dashoffset: 0; stroke-linejoin: miter; stroke-miterlimit: 4; is-custom-font: none; font-file-url: none; fill: rgb(0,0,0); fill-rule: nonzero; opacity: 1;" transform=" translate(-385.211, -82.788)" d="M 393.607 82.788 c 0 -5.038 -3.358 -8.396 -8.396 -8.396 s -8.396 3.358 -8.396 8.396 s 3.358 8.396 8.396 8.396 C 390.249 91.184 393.607 87.826 393.607 82.788" stroke-linecap="round"/>
</g>
		<g transform="matrix(1.8059 0 0 1.8059 60.6494 60.6494)" id="Layer_1">
<path style="stroke: none; stroke-width: 1; stroke-dasharray: none; stroke-linecap: butt; stroke-dashoffset: 0; stroke-linejoin: miter; stroke-miterlimit: 4; is-custom-font: none; font-file-url: none; fill: rgb(0,0,0); fill-rule: nonzero; opacity: 1;" transform=" translate(-418.795, -116.372)" d="M 427.191 116.372 c 0 -5.038 -3.358 -8.396 -8.396 -8.396 s -8.396 3.358 -8.396 8.396 c 0 5.038 3.358 8.396 8.396 8.396 C 423.832 124.768 427.191 121.409 427.191 116.372" stroke-linecap="round"/>
</g>
</g>
</g>
</g>
</g>
</svg>